<?xml version="1.0" encoding="utf-8"?>
<!-- Generator: Adobe Illustrator 16.0.0, SVG Export Plug-In . SVG Version: 6.00 Build 0)  -->
<!DOCTYPE svg PUBLIC "-//W3C//DTD SVG 1.1//EN" "http://www.w3.org/Graphics/SVG/1.1/DTD/svg11.dtd">
<svg version="1.1" id="Layer_1" xmlns="http://www.w3.org/2000/svg" xmlns:xlink="http://www.w3.org/1999/xlink" x="0px" y="0px"
	 width="24px" height="24px" viewBox="0 0 24 24" enable-background="new 0 0 24 24" xml:space="preserve">
<path fill="#AAAAAA" d="M11.701,0.65h-8c-1.9,0-3.7,1.2-3.7,3v8c0,1.799,2,3.299,4,3.299v3c0,0.5,0.5,0.701,0.9,0.301l4-3.699h2.699
	c1.801,0,3.301-1.201,3.301-3v-7.9C15,1.85,13.5,0.65,11.701,0.65z M4,3.65c0,0,0.6,0,1.1,0H9.9c0.399,0,1.1,0,1.1,0v0.8
	c0,0-0.7,0.3-1.1,0.3H5.1C4.7,4.65,4,4.35,4,4.35V3.65z M3.5,11.55c-0.2-0.2-0.3-0.301-0.6-0.5c1-0.801,1.8-2.101,2.2-3.4l0.7,0.3
	C5.2,9.45,4.4,10.55,3.5,11.55z M8,6.65v4.8c0,0.7-0.2,0.8-1.2,0.8c-0.399,0-1,0-1.399-0.1c0-0.3-0.101-0.4-0.2-0.7
	C5.8,11.55,6.1,11.55,6.6,11.55c0.4,0,0.4,0,0.4-0.301v-4.6H4.1C3.7,6.65,3,6.75,3,6.75v-0.8c0,0,0.7-0.4,1.1-0.4H10.9
	c0.5,0,1.099,0.4,1.099,0.4v0.8c0,0-0.6-0.1-1.099-0.1H8z M11.701,11.45c-1-1.1-1.601-1.899-2.3-3.6l0.6-0.2
	c0.5,1.1,0.8,1.7,1.4,2.4c0.301,0.3,0.5,0.5,0.801,0.899L11.701,11.45z"/>
<g id="Layer_3">
	<path fill="#AAAAAA" d="M19.854,8.809L10.03,19.054l-0.818,4.269l4.094-0.854l9.824-10.245C23.13,10.516,21.492,8.809,19.854,8.809
		z M11.831,20.334c-0.245-0.255-0.572-0.512-0.818-0.683c1.883-1.964,9.252-9.733,9.252-9.733c0.327,0.085,0.572,0.256,0.818,0.598
		L11.831,20.334z"/>
</g>
</svg>
